<svg width="88" height="32" viewBox="0 0 88 32" fill="none" xmlns="http://www.w3.org/2000/svg">
<g id="img-logo-runsystem">
<path id="Vector" d="M49.0599 1.10889H51.4517L56.8681 8.04812V1.10889H59.2599V11.8326H56.8681L51.4517 4.82357V11.8326H49.0599V1.10889Z" fill="#5E7791"/>
<path id="Vector_2" d="M40.2489 20.2594L35.9885 13.853H38.9235L41.3692 17.6832L44.0245 13.853H46.8204L42.6276 20.2594V25.0649H40.2509L40.2489 20.2594Z" fill="#5E7791"/>
<path id="Vector_3" d="M58.0716 16.2203H55.0665V13.853H63.5228V16.2203H60.5178V25.0649H58.1411V16.2203H58.0716Z" fill="#5E7791"/>
<path id="Vector_4" d="M64.7806 13.853H72.3278V16.2203H67.1568V18.2396H71.2095V20.608H67.1568V22.7664H72.3278V25.1347H64.7806V13.853Z" fill="#5E7791"/>
<path id="Vector_5" d="M76.4511 13.853L80.2947 21.4431L84.1389 13.853H86.6541V25.0644H84.1389V19.4941L81.1333 25.0644H79.2465L76.3816 19.4941V25.0644H73.8654V13.853H76.4511Z" fill="#5E7791"/>
<path id="Vector_6" d="M24.4572 17.4737V24.6464L0.766479 1.10889H8.03444L24.4572 17.4737Z" fill="#3F79BC"/>
<path id="Vector_7" d="M24.4571 9.46529V16.7073L8.80292 1.10889H16.0709L24.4571 9.46529Z" fill="#55ABDF"/>
<path id="Vector_8" d="M24.4571 1.10889V8.69895L16.7699 1.10889H24.4571Z" fill="#3CC1CC"/>
<path id="Vector_9" d="M28.8627 27.6755L28.7367 28.6949H29.2074C29.3167 28.6949 29.413 28.6809 29.4956 28.6528C29.5788 28.6246 29.6483 28.5845 29.7038 28.5332C29.7597 28.481 29.801 28.4177 29.8298 28.3439C29.8585 28.2691 29.8726 28.1857 29.8726 28.0933C29.8726 27.9522 29.8297 27.8472 29.7456 27.7784C29.6609 27.7102 29.5294 27.6755 29.352 27.6755H28.8622H28.8627ZM29.1499 30.0373C29.2593 30.0373 29.3545 30.0227 29.4352 29.9936C29.5163 29.9645 29.5843 29.9238 29.6377 29.8706C29.6917 29.8178 29.7325 29.7536 29.7597 29.6787C29.7864 29.6034 29.8 29.5195 29.8 29.4261C29.8 29.3608 29.7894 29.3026 29.7678 29.2504C29.7466 29.1986 29.7149 29.1549 29.6715 29.1173C29.6292 29.0806 29.5748 29.0525 29.5087 29.0334C29.4432 29.0133 29.3651 29.0033 29.2754 29.0033H28.6984L28.5704 30.0373H29.1504H29.1499ZM29.3928 27.3335C29.5551 27.3335 29.6937 27.3496 29.8096 27.3817C29.9255 27.4134 30.0207 27.4591 30.0963 27.5183C30.1714 27.5786 30.2274 27.6499 30.2626 27.7348C30.2979 27.8181 30.3156 27.913 30.3156 28.018C30.3156 28.1069 30.3025 28.1923 30.2773 28.2746C30.2521 28.357 30.2128 28.4323 30.1613 28.5016C30.1089 28.5714 30.0439 28.6322 29.9658 28.6859C29.8882 28.7386 29.7965 28.7823 29.6907 28.816C29.8726 28.8571 30.0087 28.928 30.0984 29.0294C30.1876 29.1303 30.2324 29.2604 30.2324 29.4171C30.2324 29.5567 30.2067 29.6863 30.1558 29.8043C30.1049 29.9228 30.0313 30.0242 29.9356 30.1101C29.8393 30.196 29.7224 30.2623 29.5843 30.311C29.4457 30.3587 29.289 30.3828 29.1136 30.3828H28.0911L28.4666 27.333H29.3933L29.3928 27.3335Z" fill="#EE8A3E"/>
<path id="Vector_10" d="M31.6651 28.4916C31.5799 28.4916 31.5018 28.5086 31.4308 28.5438C31.3597 28.5779 31.2957 28.6261 31.2388 28.6874C31.1823 28.7492 31.134 28.822 31.0941 28.9044C31.0538 28.9872 31.0231 29.0776 31.0004 29.175C31.2095 29.1479 31.3764 29.1183 31.5023 29.0857C31.6283 29.053 31.7251 29.0179 31.7936 28.9787C31.8622 28.94 31.9065 28.8983 31.9287 28.8546C31.9503 28.811 31.9619 28.7637 31.9619 28.715C31.9619 28.6904 31.9564 28.6658 31.9458 28.6392C31.9352 28.6126 31.9181 28.5885 31.8949 28.5674C31.8712 28.5453 31.8405 28.5272 31.8032 28.5127C31.7654 28.4986 31.72 28.4916 31.6656 28.4916H31.6651ZM32.2835 29.9841C32.2094 30.0594 32.1378 30.1242 32.0683 30.1779C31.9987 30.2311 31.9272 30.2763 31.8536 30.312C31.781 30.3471 31.7044 30.3728 31.6248 30.3893C31.5452 30.4054 31.4585 30.4134 31.3653 30.4134C31.2413 30.4134 31.1294 30.3923 31.0296 30.3507C30.9293 30.309 30.8442 30.2502 30.7746 30.1734C30.7051 30.0971 30.6512 30.0047 30.6139 29.8962C30.5761 29.7882 30.5574 29.6672 30.5574 29.5321C30.5574 29.4206 30.569 29.3096 30.5922 29.1996C30.6159 29.0907 30.6502 28.9862 30.696 28.8883C30.7414 28.7899 30.7968 28.698 30.8618 28.6131C30.9273 28.5282 31.0019 28.4549 31.0861 28.3931C31.1697 28.3319 31.262 28.2837 31.3627 28.2495C31.4635 28.2149 31.5724 28.1968 31.6893 28.1968C31.8002 28.1968 31.8959 28.2123 31.9766 28.2435C32.0577 28.2751 32.1247 28.3153 32.1776 28.3635C32.231 28.4122 32.2704 28.4665 32.2966 28.5257C32.3218 28.5855 32.3344 28.6437 32.3344 28.6995C32.3344 28.7934 32.3157 28.8787 32.2774 28.9581C32.2386 29.0364 32.1691 29.1077 32.0673 29.17C31.9655 29.2333 31.8259 29.2885 31.6485 29.3352C31.4706 29.3824 31.2428 29.4196 30.9646 29.4477C30.9626 29.4608 30.9621 29.4728 30.9621 29.4859V29.5236C30.9621 29.7094 31.0029 29.8495 31.0825 29.9444C31.1632 30.0398 31.2841 30.087 31.4464 30.087C31.5129 30.087 31.5729 30.08 31.6253 30.0664C31.6777 30.0529 31.7241 30.0363 31.7649 30.0162C31.8052 29.9966 31.8405 29.975 31.8717 29.9514C31.903 29.9278 31.9322 29.9067 31.9584 29.8866C31.9841 29.8671 32.0093 29.8505 32.0315 29.8364C32.0547 29.8234 32.0778 29.8168 32.102 29.8168C32.1177 29.8168 32.1313 29.8204 32.1434 29.8284C32.1555 29.8354 32.167 29.8455 32.1781 29.8575L32.283 29.9846L32.2835 29.9841Z" fill="#EE8A3E"/>
<path id="Vector_11" d="M34.0221 30.1991C33.9551 30.2528 33.8881 30.296 33.821 30.3276C33.753 30.3598 33.684 30.3819 33.6119 30.3939C33.5398 30.408 33.4612 30.4135 33.3766 30.4135C33.2511 30.4135 33.1397 30.3924 33.0424 30.3497C32.9452 30.3076 32.8635 30.2468 32.7975 30.169C32.7315 30.0916 32.6821 29.9977 32.6473 29.8892C32.6131 29.7798 32.5964 29.6582 32.5964 29.5251C32.5964 29.4096 32.609 29.2956 32.6342 29.1847C32.6589 29.0732 32.6947 28.9687 32.7416 28.8703C32.7884 28.7719 32.8449 28.6815 32.9119 28.5986C32.9784 28.5157 33.0535 28.4444 33.1357 28.3842C33.2183 28.3239 33.308 28.2777 33.4053 28.2436C33.5025 28.2099 33.6058 28.1938 33.7157 28.1938C33.8588 28.1938 33.9793 28.2195 34.0765 28.2707C34.1738 28.3209 34.259 28.3957 34.333 28.4937L34.2025 28.6513C34.1914 28.6619 34.1793 28.6719 34.1652 28.681C34.1516 28.6895 34.137 28.6935 34.1214 28.6935C34.1017 28.6935 34.0816 28.6855 34.0619 28.6684C34.0418 28.6518 34.0171 28.6333 33.9868 28.6122C33.9571 28.5911 33.9198 28.5725 33.8755 28.5564C33.8301 28.5389 33.7737 28.5308 33.7036 28.5308C33.6104 28.5308 33.5217 28.5554 33.4375 28.6066C33.3539 28.6559 33.2803 28.7262 33.2178 28.8156C33.1553 28.9049 33.1059 29.0099 33.0686 29.1324C33.0313 29.254 33.0132 29.3865 33.0132 29.5287C33.0132 29.614 33.0233 29.6904 33.0434 29.7607C33.0631 29.8305 33.0918 29.8882 33.1296 29.9369C33.1669 29.9852 33.2138 30.0223 33.2702 30.0484C33.3262 30.0745 33.3907 30.0881 33.4632 30.0881C33.5242 30.0881 33.5781 30.0811 33.6265 30.0685C33.6739 30.056 33.7157 30.0404 33.752 30.0223C33.7888 30.0037 33.821 29.9826 33.8488 29.9605C33.8775 29.9379 33.9027 29.9169 33.9254 29.8988C33.948 29.8802 33.9697 29.8651 33.9894 29.8521C34.0095 29.839 34.0297 29.8335 34.0493 29.8335C34.078 29.8335 34.1032 29.846 34.1259 29.8717L34.2302 29.9987C34.1582 30.0791 34.0881 30.1469 34.0211 30.2001L34.0221 30.1991Z" fill="#EE8A3E"/>
<path id="Vector_12" d="M35.9719 28.5082C35.9164 28.4997 35.8615 28.4961 35.8081 28.4961C35.6816 28.4961 35.5632 28.5253 35.4518 28.584C35.3409 28.6433 35.2452 28.7216 35.1635 28.8206C35.0814 28.92 35.0164 29.035 34.9695 29.1661C34.9216 29.2966 34.898 29.4337 34.898 29.5773C34.898 29.7426 34.9252 29.8666 34.9786 29.948C35.0325 30.0293 35.1106 30.0705 35.2134 30.0705C35.2799 30.0705 35.346 30.0489 35.4105 30.0057C35.475 29.9625 35.5365 29.9028 35.5934 29.8274C35.6514 29.7516 35.7043 29.6617 35.7537 29.5588C35.8025 29.4553 35.8454 29.3423 35.8827 29.2218L35.9719 28.5097V28.5082ZM35.8267 29.8445C35.7773 29.9309 35.7234 30.0092 35.666 30.079C35.6085 30.1488 35.5475 30.2096 35.483 30.2588C35.418 30.3085 35.35 30.3467 35.2779 30.3733C35.2059 30.3994 35.1323 30.4135 35.0552 30.4135C34.9705 30.4135 34.8929 30.3969 34.8219 30.3638C34.7518 30.3306 34.6913 30.2809 34.6409 30.2171C34.5905 30.1524 34.5512 30.0735 34.5235 29.9781C34.4958 29.8832 34.4817 29.7747 34.4817 29.6512C34.4817 29.5236 34.4978 29.3996 34.5301 29.2765C34.5618 29.154 34.6077 29.039 34.6676 28.932C34.7271 28.8241 34.7987 28.7246 34.8813 28.6342C34.9645 28.5433 35.0572 28.466 35.1595 28.4012C35.2623 28.3359 35.3722 28.2857 35.4911 28.2496C35.6095 28.2124 35.7335 28.1948 35.8625 28.1948C35.9567 28.1948 36.0485 28.2024 36.1387 28.2174C36.2289 28.232 36.3181 28.2581 36.4063 28.2953L36.1467 30.3844H35.929C35.8756 30.3844 35.8393 30.3708 35.8212 30.3432C35.8025 30.3156 35.793 30.2819 35.793 30.2427L35.8267 29.8455V29.8445Z" fill="#EE8A3E"/>
<path id="Vector_13" d="M38.674 28.2256L38.412 30.3835H38.2054C38.1046 30.3835 38.0537 30.3338 38.0537 30.2348L38.0794 29.8823C37.9675 30.0581 37.841 30.1906 37.7009 30.2795C37.5613 30.3689 37.4177 30.4136 37.2695 30.4136C37.1783 30.4136 37.0982 30.396 37.0276 30.3599C36.9576 30.3237 36.9001 30.2705 36.8563 30.2012C36.812 30.1319 36.7822 30.047 36.7656 29.9456C36.749 29.8451 36.749 29.7291 36.7646 29.5981L36.9284 28.2261H37.3421L37.1803 29.5981C37.1602 29.7598 37.1693 29.8788 37.2081 29.9556C37.2464 30.032 37.3184 30.0701 37.4253 30.0701C37.4893 30.0701 37.5543 30.0525 37.6213 30.0179C37.6883 29.9832 37.7528 29.934 37.8153 29.8708C37.8773 29.807 37.9353 29.7301 37.9887 29.6392C38.0421 29.5483 38.088 29.4479 38.1263 29.3369L38.2583 28.2261H38.674V28.2256Z" fill="#EE8A3E"/>
<path id="Vector_14" d="M40.3658 28.5871C40.3527 28.6051 40.3406 28.6182 40.329 28.6257C40.3164 28.6343 40.3013 28.6378 40.2831 28.6378C40.262 28.6378 40.2393 28.6302 40.2161 28.6147C40.1924 28.5986 40.1637 28.582 40.1305 28.5635C40.0967 28.5449 40.0574 28.5283 40.0105 28.5122C39.9636 28.4972 39.9067 28.4891 39.8402 28.4891C39.7777 28.4891 39.7212 28.4982 39.6719 28.5142C39.6225 28.5313 39.5791 28.5544 39.5428 28.583C39.5061 28.6127 39.4788 28.6473 39.4597 28.6865C39.44 28.7257 39.4305 28.7668 39.4305 28.8115C39.4305 28.8592 39.4436 28.8999 39.4688 28.9326C39.4945 28.9657 39.5282 28.9938 39.5685 29.0189C39.6099 29.0436 39.6572 29.0656 39.7107 29.0852C39.7641 29.1053 39.818 29.1264 39.8734 29.1485C39.9289 29.1701 39.9833 29.1947 40.0367 29.2218C40.0896 29.2479 40.137 29.2816 40.1783 29.3198C40.2191 29.3589 40.2529 29.4061 40.2786 29.4619C40.3038 29.5171 40.3164 29.5829 40.3164 29.6587C40.3164 29.7592 40.2968 29.8556 40.2564 29.947C40.2166 30.0384 40.1597 30.1182 40.0856 30.1885C40.0105 30.2593 39.9203 30.3151 39.816 30.3558C39.7107 30.3964 39.5927 30.417 39.4617 30.417C39.3236 30.417 39.2012 30.3924 39.0928 30.3427C38.985 30.293 38.8973 30.2297 38.8303 30.1539L38.9331 29.9947C38.9598 29.954 38.9966 29.9329 39.0419 29.9329C39.0656 29.9329 39.0898 29.943 39.113 29.9631C39.1367 29.9821 39.1654 30.0042 39.1992 30.0273C39.2334 30.0509 39.2752 30.0725 39.3251 30.0926C39.3745 30.1127 39.439 30.1222 39.5171 30.1222C39.5842 30.1222 39.6436 30.1127 39.6971 30.0926C39.7505 30.0725 39.7953 30.0459 39.8326 30.0133C39.8694 29.9796 39.8971 29.941 39.9163 29.8973C39.9354 29.8531 39.9455 29.8069 39.9455 29.7572C39.9455 29.7049 39.9324 29.6607 39.9072 29.6246C39.882 29.5884 39.8482 29.5583 39.8069 29.5332C39.7661 29.5081 39.7187 29.486 39.6653 29.4674C39.6124 29.4483 39.558 29.4287 39.503 29.4076C39.4481 29.387 39.3947 29.3644 39.3413 29.3398C39.2884 29.3152 39.241 29.2836 39.1992 29.2449C39.1578 29.2073 39.1251 29.1606 39.0994 29.1058C39.0737 29.0521 39.0616 28.9858 39.0616 28.908C39.0616 28.8161 39.0797 28.7267 39.1165 28.6413C39.1533 28.5554 39.2067 28.4796 39.2752 28.4123C39.3438 28.346 39.4279 28.2933 39.5267 28.2536C39.6255 28.2139 39.7369 28.1938 39.8623 28.1938C39.9954 28.1938 40.1123 28.2159 40.2126 28.2591C40.3129 28.3013 40.3986 28.3616 40.4716 28.4364L40.3648 28.5871H40.3658Z" fill="#EE8A3E"/>
<path id="Vector_15" d="M41.7769 28.4916C41.6917 28.4916 41.6136 28.5086 41.543 28.5438C41.4715 28.5779 41.4075 28.6261 41.351 28.6874C41.2941 28.7492 41.2457 28.822 41.2059 28.9044C41.1656 28.9872 41.1348 29.0776 41.1121 29.175C41.3213 29.1479 41.4881 29.1183 41.6141 29.0857C41.7401 29.053 41.8368 29.0179 41.9054 28.9787C41.9739 28.94 42.0182 28.8983 42.0404 28.8546C42.0621 28.811 42.0737 28.7637 42.0737 28.715C42.0737 28.6904 42.0681 28.6658 42.0576 28.6392C42.047 28.6126 42.0298 28.5885 42.0067 28.5674C41.983 28.5453 41.9522 28.5272 41.9144 28.5127C41.8771 28.4986 41.8313 28.4916 41.7769 28.4916ZM42.3952 29.9841C42.3211 30.0594 42.2496 30.1242 42.18 30.1779C42.1105 30.2311 42.0389 30.2763 41.9658 30.312C41.8928 30.3471 41.8162 30.3728 41.737 30.3893C41.6574 30.4054 41.5707 30.4134 41.4775 30.4134C41.3535 30.4134 41.2417 30.3923 41.1419 30.3507C41.0416 30.309 40.9564 30.2502 40.8869 30.1734C40.8173 30.0971 40.7634 30.0047 40.7261 29.8962C40.6883 29.7882 40.6697 29.6672 40.6697 29.5321C40.6697 29.4206 40.6813 29.3096 40.7045 29.1996C40.7281 29.0907 40.7624 28.9862 40.8078 28.8883C40.8531 28.7899 40.9086 28.698 40.9736 28.6131C41.0391 28.5282 41.1137 28.4549 41.1978 28.3931C41.2815 28.3319 41.3737 28.2837 41.4745 28.2495C41.5753 28.2149 41.6841 28.1968 41.8005 28.1968C41.9114 28.1968 42.0072 28.2123 42.0878 28.2435C42.1689 28.2751 42.236 28.3153 42.2889 28.3635C42.3423 28.4122 42.3816 28.4665 42.4078 28.5257C42.4325 28.5855 42.4456 28.6437 42.4456 28.6995C42.4456 28.7934 42.4269 28.8787 42.3886 28.9581C42.3498 29.0364 42.2803 29.1077 42.1785 29.17C42.0767 29.2333 41.9371 29.2885 41.7597 29.3352C41.5818 29.3824 41.354 29.4196 41.0759 29.4477C41.0738 29.4608 41.0733 29.4728 41.0733 29.4859V29.5236C41.0733 29.7094 41.1142 29.8495 41.1943 29.9444C41.2744 30.0398 41.3954 30.087 41.5576 30.087C41.6242 30.087 41.6841 30.08 41.7365 30.0664C41.7889 30.0529 41.8353 30.0363 41.8761 30.0162C41.9164 29.9966 41.9522 29.975 41.9835 29.9514C42.0147 29.9278 42.0439 29.9067 42.0702 29.8866C42.0959 29.8671 42.1211 29.8505 42.1432 29.8364C42.1664 29.8234 42.1896 29.8168 42.2138 29.8168C42.2294 29.8168 42.243 29.8204 42.2551 29.8284C42.2672 29.8354 42.2788 29.8455 42.2899 29.8575L42.3947 29.9846L42.3952 29.9841Z" fill="#EE8A3E"/>
<path id="Vector_16" d="M44.5511 27.689L44.4297 28.6738H45.4849L45.4401 29.0158H44.3873L44.2644 30.0292H45.5787L45.5338 30.3838H43.7801L44.1555 27.3335H45.9093L45.8644 27.689H44.5511Z" fill="#EE8A3E"/>
<path id="Vector_17" d="M47.9009 28.2256L46.8209 30.3835H46.4712L45.9168 28.2256H46.256C46.2872 28.2256 46.3114 28.2341 46.3295 28.2492C46.3472 28.2653 46.3588 28.2848 46.3643 28.309L46.6632 29.6347C46.6727 29.6935 46.6803 29.7517 46.6863 29.8075C46.6924 29.8632 46.6964 29.9195 46.6994 29.9762C46.7176 29.92 46.7372 29.8637 46.7569 29.8075C46.7765 29.7517 46.7987 29.6935 46.8229 29.6347L47.4554 28.309C47.467 28.2848 47.4831 28.2653 47.5043 28.2492C47.5259 28.2341 47.5496 28.2256 47.5768 28.2256H47.9009Z" fill="#EE8A3E"/>
<path id="Vector_18" d="M49.0015 28.4916C48.9168 28.4916 48.8382 28.5086 48.7671 28.5438C48.6961 28.5779 48.6321 28.6261 48.5751 28.6874C48.5187 28.7492 48.4708 28.822 48.43 28.9044C48.3902 28.9872 48.3594 29.0776 48.3363 29.175C48.5459 29.1479 48.7132 29.1183 48.8392 29.0857C48.9647 29.053 49.0615 29.0179 49.1295 28.9787C49.1975 28.94 49.2429 28.8983 49.265 28.8546C49.2872 28.811 49.2978 28.7637 49.2978 28.715C49.2978 28.6904 49.2928 28.6658 49.2817 28.6392C49.2711 28.6126 49.2545 28.5885 49.2313 28.5674C49.2071 28.5453 49.1769 28.5272 49.1391 28.5127C49.1018 28.4986 49.0554 28.4916 49.0015 28.4916ZM49.6193 29.9841C49.5457 30.0594 49.4742 30.1242 49.4046 30.1779C49.3351 30.2311 49.2635 30.2763 49.1905 30.312C49.1169 30.3471 49.0403 30.3728 48.9617 30.3893C48.8815 30.4054 48.7959 30.4134 48.7011 30.4134C48.5777 30.4134 48.4658 30.3923 48.3655 30.3507C48.2652 30.309 48.1805 30.2502 48.1105 30.1734C48.0415 30.0971 47.9875 30.0047 47.9502 29.8962C47.9124 29.7882 47.8938 29.6672 47.8938 29.5321C47.8938 29.4206 47.9044 29.3096 47.9281 29.1996C47.9518 29.0907 47.986 28.9862 48.0314 28.8883C48.0767 28.7899 48.1322 28.698 48.1977 28.6131C48.2632 28.5282 48.3373 28.4549 48.4219 28.3931C48.5056 28.3319 48.5983 28.2837 48.6991 28.2495C48.7994 28.2149 48.9088 28.1968 49.0252 28.1968C49.1355 28.1968 49.2313 28.2123 49.3124 28.2435C49.3931 28.2751 49.4606 28.3153 49.514 28.3635C49.5664 28.4122 49.6062 28.4665 49.6324 28.5257C49.6576 28.5855 49.6702 28.6437 49.6702 28.6995C49.6702 28.7934 49.6511 28.8787 49.6128 28.9581C49.5745 29.0364 49.5044 29.1077 49.4031 29.17C49.3013 29.2333 49.1617 29.2885 48.9843 29.3352C48.8065 29.3824 48.5787 29.4196 48.3 29.4477C48.2985 29.4608 48.298 29.4728 48.298 29.4859V29.5236C48.298 29.7094 48.3388 29.8495 48.4184 29.9444C48.499 30.0398 48.6195 30.087 48.7818 30.087C48.8483 30.087 48.9088 30.08 48.9612 30.0664C49.0136 30.0529 49.0604 30.0363 49.1008 30.0162C49.1411 29.9966 49.1774 29.975 49.2086 29.9514C49.2398 29.9278 49.2686 29.9067 49.2948 29.8866C49.321 29.8671 49.3457 29.8505 49.3684 29.8364C49.3905 29.8234 49.4142 29.8168 49.4384 29.8168C49.4535 29.8168 49.4676 29.8204 49.4797 29.8284C49.4918 29.8354 49.5034 29.8455 49.5145 29.8575L49.6188 29.9846L49.6193 29.9841Z" fill="#EE8A3E"/>
<path id="Vector_19" d="M50.5209 28.8081C50.5773 28.6901 50.6383 28.5886 50.7033 28.5027C50.7688 28.4174 50.8374 28.3501 50.9089 28.3009C50.9795 28.2521 51.0531 28.223 51.1292 28.2115C51.2053 28.2009 51.2813 28.213 51.358 28.2466L51.2834 28.6464C51.1004 28.5725 50.9397 28.5971 50.8016 28.7207C50.6635 28.8437 50.5526 29.0717 50.4675 29.4042L50.3475 30.3834H49.9413L50.2029 28.222H50.4115C50.4574 28.222 50.4922 28.2336 50.5164 28.2557C50.54 28.2783 50.5526 28.3139 50.5526 28.3621L50.5209 28.8081Z" fill="#EE8A3E"/>
<path id="Vector_20" d="M53.4322 28.2256L51.9783 31.0148C51.9456 31.0765 51.8982 31.1077 51.8357 31.1077H51.5288L52.002 30.2454L51.4442 28.2251H51.7889C51.8221 28.2251 51.8458 28.2336 51.8619 28.2487C51.877 28.2648 51.8881 28.2844 51.8957 28.3085L52.2238 29.6041C52.2308 29.6352 52.2369 29.6654 52.2414 29.6965C52.2464 29.7266 52.251 29.7578 52.2535 29.7909C52.2661 29.7578 52.2787 29.7261 52.2933 29.695C52.3064 29.6644 52.321 29.6332 52.3361 29.6021L52.9827 28.3065C52.9938 28.2818 53.0104 28.2623 53.0326 28.2482C53.0543 28.2331 53.0775 28.2251 53.0991 28.2251H53.4322V28.2256Z" fill="#EE8A3E"/>
<path id="Vector_21" d="M55.2091 27.6755L55.0831 28.6949H55.5543C55.6637 28.6949 55.76 28.6809 55.8436 28.6528C55.9263 28.6246 55.9958 28.5845 56.0517 28.5332C56.1067 28.481 56.1485 28.4177 56.1767 28.3439C56.2049 28.2691 56.2196 28.1857 56.2196 28.0933C56.2196 27.9522 56.1772 27.8472 56.0926 27.7784C56.0084 27.7102 55.8769 27.6755 55.7 27.6755H55.2096H55.2091ZM55.4969 30.0373C55.6063 30.0373 55.702 30.0227 55.7821 29.9936C55.8633 29.9645 55.9308 29.9238 55.9842 29.8706C56.0381 29.8178 56.079 29.7536 56.1062 29.6787C56.1329 29.6034 56.147 29.5195 56.147 29.4261C56.147 29.3608 56.1359 29.3026 56.1147 29.2504C56.0931 29.1986 56.0613 29.1549 56.019 29.1173C55.9761 29.0806 55.9217 29.0525 55.8557 29.0334C55.7897 29.0133 55.7121 29.0033 55.6224 29.0033H55.0449L54.9174 30.0373H55.4974H55.4969ZM55.7398 27.3335C55.9021 27.3335 56.0407 27.3496 56.1566 27.3817C56.2725 27.4134 56.3677 27.4591 56.4433 27.5183C56.5184 27.5786 56.5738 27.6499 56.6091 27.7348C56.6444 27.8181 56.6625 27.913 56.6625 28.018C56.6625 28.1069 56.6489 28.1923 56.6232 28.2746C56.5985 28.357 56.5592 28.4323 56.5078 28.5016C56.4559 28.5714 56.3909 28.6322 56.3133 28.6859C56.2347 28.7386 56.143 28.7823 56.0381 28.816C56.2201 28.8571 56.3556 28.928 56.4458 29.0294C56.535 29.1303 56.5799 29.2604 56.5799 29.4171C56.5799 29.5567 56.5542 29.6863 56.5033 29.8043C56.4519 29.9228 56.3783 30.0242 56.2825 30.1101C56.1868 30.196 56.0699 30.2623 55.9313 30.311C55.7927 30.3587 55.6365 30.3828 55.4611 30.3828H54.4386L54.8135 27.333H55.7408L55.7398 27.3335Z" fill="#EE8A3E"/>
<path id="Vector_22" d="M58.8814 28.2256L58.6184 30.3835H58.4122C58.3114 30.3835 58.2605 30.3338 58.2605 30.2348L58.2863 29.8823C58.1749 30.0581 58.0479 30.1906 57.9083 30.2795C57.7682 30.3689 57.6246 30.4136 57.4769 30.4136C57.3852 30.4136 57.3051 30.396 57.235 30.3599C57.165 30.3237 57.107 30.2705 57.0632 30.2012C57.0188 30.1319 56.9891 30.047 56.973 29.9456C56.9563 29.8451 56.9553 29.7291 56.9714 29.5981L57.1352 28.2261H57.549L57.3872 29.5981C57.3665 29.7598 57.3766 29.8788 57.4149 29.9556C57.4532 30.032 57.5253 30.0701 57.6326 30.0701C57.6971 30.0701 57.7621 30.0525 57.8287 30.0179C57.8957 29.9832 57.9602 29.934 58.0227 29.8708C58.0852 29.807 58.1426 29.7301 58.1965 29.6392C58.249 29.5483 58.2953 29.4479 58.3331 29.3369L58.4662 28.2261H58.8819L58.8814 28.2256Z" fill="#EE8A3E"/>
<path id="Vector_23" d="M60.5737 28.5871C60.5601 28.6051 60.548 28.6182 60.5359 28.6257C60.5243 28.6343 60.5087 28.6378 60.49 28.6378C60.4689 28.6378 60.4462 28.6302 60.4225 28.6147C60.3998 28.5986 60.3711 28.582 60.3378 28.5635C60.3041 28.5449 60.2643 28.5283 60.2169 28.5122C60.1705 28.4972 60.1131 28.4891 60.0471 28.4891C59.9846 28.4891 59.9281 28.4982 59.8787 28.5142C59.8289 28.5313 59.786 28.5544 59.7497 28.583C59.7135 28.6127 59.6852 28.6473 59.6666 28.6865C59.6474 28.7257 59.6374 28.7668 59.6374 28.8115C59.6374 28.8592 59.651 28.8999 59.6762 28.9326C59.7009 28.9657 59.7346 28.9938 59.7759 29.0189C59.8173 29.0436 59.8646 29.0656 59.9181 29.0852C59.9705 29.1053 60.0249 29.1264 60.0803 29.1485C60.1363 29.1701 60.1902 29.1947 60.2436 29.2218C60.296 29.2479 60.3434 29.2816 60.3857 29.3198C60.4265 29.3589 60.4598 29.4061 60.4855 29.4619C60.5107 29.5171 60.5238 29.5829 60.5238 29.6587C60.5238 29.7592 60.5031 29.8556 60.4633 29.947C60.424 30.0384 60.3671 30.1182 60.292 30.1885C60.2179 30.2593 60.1282 30.3151 60.0224 30.3558C59.9176 30.3964 59.7991 30.417 59.6686 30.417C59.531 30.417 59.4081 30.3924 59.2997 30.3427C59.1919 30.293 59.1047 30.2297 59.0377 30.1539L59.1405 29.9947C59.1672 29.954 59.2035 29.9329 59.2483 29.9329C59.273 29.9329 59.2967 29.943 59.3204 29.9631C59.3441 29.9821 59.3728 30.0042 59.4065 30.0273C59.4403 30.0509 59.4826 30.0725 59.532 30.0926C59.5824 30.1127 59.6464 30.1222 59.724 30.1222C59.7911 30.1222 59.8515 30.1127 59.9039 30.0926C59.9574 30.0725 60.0032 30.0459 60.0395 30.0133C60.0768 29.9796 60.1045 29.941 60.1237 29.8973C60.1433 29.8531 60.1519 29.8069 60.1519 29.7572C60.1519 29.7049 60.1393 29.6607 60.1141 29.6246C60.0884 29.5884 60.0546 29.5583 60.0138 29.5332C59.973 29.5081 59.9256 29.486 59.8722 29.4674C59.8193 29.4483 59.7649 29.4287 59.7099 29.4076C59.655 29.387 59.6016 29.3644 59.5482 29.3398C59.4942 29.3152 59.4469 29.2836 59.406 29.2449C59.3652 29.2073 59.3315 29.1606 59.3063 29.1058C59.2806 29.0521 59.268 28.9858 59.268 28.908C59.268 28.8161 59.2861 28.7267 59.3239 28.6413C59.3607 28.5554 59.4131 28.4796 59.4826 28.4123C59.5512 28.346 59.6353 28.2933 59.7341 28.2536C59.8329 28.2139 59.9448 28.1938 60.0697 28.1938C60.2033 28.1938 60.3202 28.2159 60.42 28.2591C60.5198 28.3013 60.6065 28.3616 60.679 28.4364L60.5727 28.5871H60.5737Z" fill="#EE8A3E"/>
<path id="Vector_24" d="M61.7091 27.5597C61.7091 27.5974 61.7005 27.6335 61.6839 27.6682C61.6678 27.7033 61.6466 27.734 61.6199 27.7596C61.5932 27.7862 61.5635 27.8073 61.5292 27.8214C61.4954 27.8364 61.4601 27.8434 61.4254 27.8434C61.3896 27.8434 61.3558 27.8364 61.3231 27.8214C61.2903 27.8073 61.2611 27.7862 61.2359 27.7596C61.2117 27.7345 61.1915 27.7033 61.1769 27.6682C61.1618 27.6335 61.1537 27.5974 61.1537 27.5597C61.1537 27.5205 61.1618 27.4844 61.1769 27.4502C61.1915 27.4156 61.2117 27.385 61.2374 27.3583C61.2631 27.3322 61.2923 27.3111 61.3256 27.2951C61.3593 27.28 61.3936 27.2725 61.4294 27.2725C61.4652 27.2725 61.4995 27.279 61.5332 27.2946C61.5675 27.3091 61.5977 27.3297 61.6234 27.3558C61.6486 27.3824 61.6688 27.4121 61.6849 27.4472C61.7 27.4819 61.7086 27.5185 61.7086 27.5587L61.7091 27.5597ZM61.568 28.2256L61.3059 30.3835H60.8967L61.1568 28.2256H61.5685H61.568Z" fill="#EE8A3E"/>
<path id="Vector_25" d="M62.4549 28.7422C62.5693 28.5614 62.6983 28.4248 62.8405 28.3324C62.9826 28.2405 63.1287 28.1943 63.2789 28.1943C63.3701 28.1943 63.4507 28.2119 63.5218 28.2491C63.5919 28.2852 63.6488 28.3375 63.6921 28.4068C63.737 28.4761 63.7667 28.5614 63.7839 28.6629C63.7995 28.7643 63.7995 28.8798 63.7818 29.0104L63.6196 30.3834H63.2043L63.3681 29.0104C63.3883 28.8472 63.3782 28.7287 63.3394 28.6518C63.3006 28.5765 63.2285 28.5383 63.1232 28.5383C63.0582 28.5383 62.9911 28.5559 62.9221 28.5921C62.8541 28.6292 62.7886 28.6795 62.7256 28.7457C62.6626 28.811 62.6031 28.8909 62.5482 28.9848C62.4932 29.0782 62.4484 29.1816 62.4106 29.2971L62.2896 30.3839H61.8744L62.1319 28.2225H62.3405C62.3864 28.2225 62.4212 28.234 62.4444 28.2561C62.4691 28.2787 62.4811 28.3144 62.4811 28.3631L62.4534 28.7427L62.4549 28.7422Z" fill="#EE8A3E"/>
<path id="Vector_26" d="M65.2504 28.4916C65.1657 28.4916 65.0871 28.5086 65.0165 28.5438C64.9455 28.5779 64.8815 28.6261 64.8245 28.6874C64.7676 28.7492 64.7197 28.822 64.6789 28.9044C64.6396 28.9872 64.6083 29.0776 64.5852 29.175C64.7943 29.1479 64.9621 29.1183 65.0876 29.0857C65.2131 29.053 65.3098 29.0179 65.3784 28.9787C65.4464 28.94 65.4918 28.8983 65.5134 28.8546C65.5356 28.811 65.5462 28.7637 65.5462 28.715C65.5462 28.6904 65.5411 28.6658 65.5301 28.6392C65.52 28.6126 65.5033 28.5885 65.4797 28.5674C65.456 28.5453 65.4257 28.5272 65.3879 28.5127C65.3502 28.4986 65.3048 28.4916 65.2504 28.4916ZM65.8682 29.9841C65.7946 30.0594 65.7231 30.1242 65.6535 30.1779C65.5845 30.2311 65.5124 30.2763 65.4393 30.312C65.3658 30.3471 65.2892 30.3728 65.2106 30.3893C65.1304 30.4054 65.0443 30.4134 64.9505 30.4134C64.8265 30.4134 64.7147 30.3923 64.6149 30.3507C64.5146 30.309 64.4299 30.2502 64.3594 30.1734C64.2903 30.0971 64.2364 30.0047 64.1991 29.8962C64.1618 29.7882 64.1432 29.6672 64.1432 29.5321C64.1432 29.4206 64.1538 29.3096 64.1775 29.1996C64.2011 29.0907 64.2354 28.9862 64.2813 28.8883C64.3266 28.7899 64.3816 28.698 64.4476 28.6131C64.5126 28.5282 64.5867 28.4549 64.6713 28.3931C64.755 28.3319 64.8477 28.2837 64.9485 28.2495C65.0493 28.2149 65.1576 28.1968 65.2746 28.1968C65.3854 28.1968 65.4812 28.2123 65.5623 28.2435C65.6424 28.2751 65.71 28.3153 65.7634 28.3635C65.8158 28.4122 65.8556 28.4665 65.8818 28.5257C65.9075 28.5855 65.9201 28.6437 65.9201 28.6995C65.9201 28.7934 65.9005 28.8787 65.8622 28.9581C65.8244 29.0364 65.7538 29.1077 65.6525 29.17C65.5512 29.2333 65.4116 29.2885 65.2342 29.3352C65.0558 29.3824 64.8286 29.4196 64.5494 29.4477C64.5479 29.4608 64.5474 29.4728 64.5474 29.4859V29.5236C64.5474 29.7094 64.5877 29.8495 64.6673 29.9444C64.7479 30.0398 64.8689 30.087 65.0306 30.087C65.0977 30.087 65.1576 30.08 65.2101 30.0664C65.2625 30.0529 65.3093 30.0363 65.3496 30.0162C65.39 29.9966 65.4257 29.975 65.457 29.9514C65.4882 29.9278 65.517 29.9067 65.5432 29.8866C65.5694 29.8671 65.5941 29.8505 65.6167 29.8364C65.6389 29.8234 65.6626 29.8168 65.6868 29.8168C65.7024 29.8168 65.7165 29.8204 65.7286 29.8284C65.7402 29.8354 65.7518 29.8455 65.7629 29.8575L65.8672 29.9846L65.8682 29.9841Z" fill="#EE8A3E"/>
<path id="Vector_27" d="M67.5997 28.5871C67.5861 28.6051 67.574 28.6182 67.5625 28.6257C67.5504 28.6343 67.5352 28.6378 67.5166 28.6378C67.4954 28.6378 67.4727 28.6302 67.4491 28.6147C67.4264 28.5986 67.3977 28.582 67.3644 28.5635C67.3311 28.5449 67.2908 28.5283 67.2435 28.5122C67.1971 28.4972 67.1401 28.4891 67.0736 28.4891C67.0111 28.4891 66.9547 28.4982 66.9053 28.5142C66.8554 28.5313 66.8121 28.5544 66.7758 28.583C66.7395 28.6127 66.7118 28.6473 66.6931 28.6865C66.674 28.7257 66.6639 28.7668 66.6639 28.8115C66.6639 28.8592 66.6775 28.8999 66.7027 28.9326C66.7279 28.9657 66.7612 28.9938 66.8025 29.0189C66.8438 29.0436 66.8912 29.0656 66.9446 29.0852C66.9975 29.1053 67.0514 29.1264 67.1069 29.1485C67.1628 29.1701 67.2167 29.1947 67.2702 29.2218C67.3226 29.2479 67.3699 29.2816 67.4118 29.3198C67.4526 29.3589 67.4859 29.4061 67.5121 29.4619C67.5373 29.5171 67.5499 29.5829 67.5499 29.6587C67.5499 29.7592 67.5297 29.8556 67.4899 29.947C67.4506 30.0384 67.3936 30.1182 67.3185 30.1885C67.244 30.2593 67.1543 30.3151 67.0489 30.3558C66.9441 30.3964 66.8257 30.417 66.6952 30.417C66.5571 30.417 66.4346 30.3924 66.3263 30.3427C66.2179 30.293 66.1312 30.2297 66.0642 30.1539L66.167 29.9947C66.1937 29.954 66.23 29.9329 66.2749 29.9329C66.2991 29.9329 66.3232 29.943 66.3464 29.9631C66.3706 29.9821 66.3988 30.0042 66.4331 30.0273C66.4674 30.0509 66.5097 30.0725 66.5586 30.0926C66.6085 30.1127 66.673 30.1222 66.7506 30.1222C66.8176 30.1222 66.8776 30.1127 66.9305 30.0926C66.9839 30.0725 67.0293 30.0459 67.0661 30.0133C67.1028 29.9796 67.1306 29.941 67.1497 29.8973C67.1694 29.8531 67.1784 29.8069 67.1784 29.7572C67.1784 29.7049 67.1658 29.6607 67.1401 29.6246C67.1149 29.5884 67.0812 29.5583 67.0404 29.5332C66.9995 29.5081 66.9522 29.486 66.8988 29.4674C66.8458 29.4483 66.7914 29.4287 66.7365 29.4076C66.6816 29.387 66.6281 29.3644 66.5747 29.3398C66.5213 29.3152 66.4739 29.2836 66.4331 29.2449C66.3923 29.2073 66.3585 29.1606 66.3333 29.1058C66.3076 29.0521 66.295 28.9858 66.295 28.908C66.295 28.8161 66.3127 28.7267 66.3505 28.6413C66.3877 28.5554 66.4402 28.4796 66.5092 28.4123C66.5777 28.346 66.6624 28.2933 66.7607 28.2536C66.8594 28.2139 66.9708 28.1938 67.0963 28.1938C67.2293 28.1938 67.3463 28.2159 67.4465 28.2591C67.5463 28.3013 67.6335 28.3616 67.7061 28.4364L67.5997 28.5871Z" fill="#EE8A3E"/>
<path id="Vector_28" d="M69.3102 28.5871C69.2971 28.6051 69.2845 28.6182 69.2729 28.6257C69.2613 28.6343 69.2457 28.6378 69.227 28.6378C69.2053 28.6378 69.1832 28.6302 69.1595 28.6147C69.1368 28.5986 69.1081 28.582 69.0748 28.5635C69.041 28.5449 69.0012 28.5283 68.9544 28.5122C68.9075 28.4972 68.8506 28.4891 68.784 28.4891C68.7215 28.4891 68.6651 28.4982 68.6157 28.5142C68.5658 28.5313 68.523 28.5544 68.4867 28.583C68.4504 28.6127 68.4227 28.6473 68.4036 28.6865C68.3844 28.7257 68.3743 28.7668 68.3743 28.8115C68.3743 28.8592 68.3879 28.8999 68.4131 28.9326C68.4383 28.9657 68.4716 28.9938 68.5134 29.0189C68.5542 29.0436 68.6016 29.0656 68.655 29.0852C68.7079 29.1053 68.7624 29.1264 68.8178 29.1485C68.8737 29.1701 68.9277 29.1947 68.9811 29.2218C69.0335 29.2479 69.0809 29.2816 69.1232 29.3198C69.164 29.3589 69.1973 29.4061 69.223 29.4619C69.2482 29.5171 69.2613 29.5829 69.2613 29.6587C69.2613 29.7592 69.2406 29.8556 69.2013 29.947C69.1615 30.0384 69.1046 30.1182 69.0295 30.1885C68.9554 30.2593 68.8657 30.3151 68.7598 30.3558C68.655 30.3964 68.5371 30.417 68.4061 30.417C68.2685 30.417 68.1455 30.3924 68.0377 30.3427C67.9298 30.293 67.8427 30.2297 67.7756 30.1539L67.8784 29.9947C67.9051 29.954 67.9414 29.9329 67.9863 29.9329C68.011 29.9329 68.0347 29.943 68.0583 29.9631C68.082 29.9821 68.1108 30.0042 68.1445 30.0273C68.1783 30.0509 68.2206 30.0725 68.27 30.0926C68.3204 30.1127 68.3844 30.1222 68.462 30.1222C68.529 30.1222 68.589 30.1127 68.6419 30.0926C68.6958 30.0725 68.7412 30.0459 68.7775 30.0133C68.8148 29.9796 68.8425 29.941 68.8616 29.8973C68.8808 29.8531 68.8899 29.8069 68.8899 29.7572C68.8899 29.7049 68.8773 29.6607 68.8521 29.6246C68.8264 29.5884 68.7926 29.5583 68.7523 29.5332C68.711 29.5081 68.6636 29.486 68.6102 29.4674C68.5578 29.4483 68.5028 29.4287 68.4484 29.4076C68.3935 29.387 68.3401 29.3644 68.2866 29.3398C68.2327 29.3152 68.1853 29.2836 68.1445 29.2449C68.1032 29.2073 68.0699 29.1606 68.0442 29.1058C68.0185 29.0521 68.0059 28.9858 68.0059 28.908C68.0059 28.8161 68.0241 28.7267 68.0619 28.6413C68.0987 28.5554 68.1511 28.4796 68.2201 28.4123C68.2887 28.346 68.3728 28.2933 68.4716 28.2536C68.5704 28.2139 68.6822 28.1938 68.8072 28.1938C68.9408 28.1938 69.0577 28.2159 69.158 28.2591C69.2577 28.3013 69.3444 28.3616 69.417 28.4364L69.3107 28.5871H69.3102Z" fill="#EE8A3E"/>
<path id="Vector_29" d="M71.4263 27.5597C71.4263 27.5974 71.4177 27.6335 71.4011 27.6682C71.3849 27.7033 71.3638 27.734 71.3371 27.7596C71.3109 27.7862 71.2806 27.8073 71.2469 27.8214C71.2126 27.8364 71.1778 27.8434 71.1425 27.8434C71.1073 27.8434 71.073 27.8364 71.0402 27.8214C71.0075 27.8073 70.9788 27.7862 70.953 27.7596C70.9289 27.7345 70.9087 27.7033 70.8941 27.6682C70.879 27.6335 70.8714 27.5974 70.8714 27.5597C70.8714 27.5205 70.879 27.4844 70.8941 27.4502C70.9087 27.4156 70.9289 27.385 70.9551 27.3583C70.9803 27.3322 71.01 27.3111 71.0438 27.2951C71.077 27.28 71.1118 27.2725 71.1471 27.2725C71.1823 27.2725 71.2171 27.279 71.2509 27.2946C71.2846 27.3091 71.3149 27.3297 71.3406 27.3558C71.3658 27.3824 71.3864 27.4121 71.4021 27.4472C71.4172 27.4819 71.4258 27.5185 71.4258 27.5587L71.4263 27.5597ZM71.2851 28.2256L71.0231 30.3835H70.6139L70.8744 28.2256H71.2857H71.2851Z" fill="#EE8A3E"/>
<path id="Vector_30" d="M72.9996 28.5871C72.986 28.6051 72.9739 28.6182 72.9618 28.6257C72.9497 28.6343 72.9346 28.6378 72.9159 28.6378C72.8948 28.6378 72.8721 28.6302 72.8484 28.6147C72.8252 28.5986 72.797 28.582 72.7638 28.5635C72.73 28.5449 72.6902 28.5283 72.6428 28.5122C72.5964 28.4972 72.5395 28.4891 72.473 28.4891C72.4105 28.4891 72.354 28.4982 72.3047 28.5142C72.2548 28.5313 72.2114 28.5544 72.1751 28.583C72.1389 28.6127 72.1111 28.6473 72.0925 28.6865C72.0733 28.7257 72.0633 28.7668 72.0633 28.8115C72.0633 28.8592 72.0764 28.8999 72.1021 28.9326C72.1268 28.9657 72.1605 28.9938 72.2018 29.0189C72.2432 29.0436 72.2905 29.0656 72.344 29.0852C72.3964 29.1053 72.4508 29.1264 72.5062 29.1485C72.5622 29.1701 72.6161 29.1947 72.6695 29.2218C72.7224 29.2479 72.7693 29.2816 72.8116 29.3198C72.8524 29.3589 72.8857 29.4061 72.9114 29.4619C72.9366 29.5171 72.9492 29.5829 72.9492 29.6587C72.9492 29.7592 72.929 29.8556 72.8892 29.947C72.8499 30.0384 72.793 30.1182 72.7179 30.1885C72.6433 30.2593 72.5536 30.3151 72.4483 30.3558C72.3435 30.3964 72.225 30.417 72.0945 30.417C71.9564 30.417 71.834 30.3924 71.7256 30.3427C71.6173 30.293 71.5306 30.2297 71.4636 30.1539L71.5659 29.9947C71.5931 29.954 71.6294 29.9329 71.6742 29.9329C71.6984 29.9329 71.7226 29.943 71.7458 29.9631C71.77 29.9821 71.7982 30.0042 71.8325 30.0273C71.8662 30.0509 71.9086 30.0725 71.9579 30.0926C72.0078 30.1127 72.0723 30.1222 72.1499 30.1222C72.217 30.1222 72.2774 30.1127 72.3299 30.0926C72.3833 30.0725 72.4286 30.0459 72.4654 30.0133C72.5022 29.9796 72.5299 29.941 72.5491 29.8973C72.5687 29.8531 72.5778 29.8069 72.5778 29.7572C72.5778 29.7049 72.5652 29.6607 72.5395 29.6246C72.5143 29.5884 72.4805 29.5583 72.4397 29.5332C72.3984 29.5081 72.351 29.486 72.2981 29.4674C72.2452 29.4483 72.1908 29.4287 72.1358 29.4076C72.0809 29.387 72.0275 29.3644 71.9736 29.3398C71.9201 29.3152 71.8728 29.2836 71.832 29.2449C71.7906 29.2073 71.7574 29.1606 71.7317 29.1058C71.7065 29.0521 71.6939 28.9858 71.6939 28.908C71.6939 28.8161 71.7115 28.7267 71.7493 28.6413C71.7866 28.5554 71.839 28.4796 71.9075 28.4123C71.9766 28.346 72.0607 28.2933 72.1595 28.2536C72.2583 28.2139 72.3697 28.1938 72.4951 28.1938C72.6282 28.1938 72.7451 28.2159 72.8454 28.2591C72.9452 28.3013 73.0324 28.3616 73.1044 28.4364L72.9981 28.5871H72.9996Z" fill="#EE8A3E"/>
<path id="Vector_31" d="M75.5138 30.0373C75.6247 30.0373 75.7265 30.0167 75.8187 29.975C75.9104 29.9333 75.9915 29.8751 76.0616 29.7982C76.1306 29.7229 76.1886 29.633 76.2329 29.5285C76.2778 29.4246 76.308 29.3091 76.3231 29.1835L76.5489 27.334H76.9884L76.7606 29.1835C76.7374 29.3608 76.691 29.525 76.62 29.6757C76.5484 29.8263 76.4567 29.9569 76.3448 30.0674C76.2319 30.1779 76.1019 30.2643 75.9532 30.326C75.8056 30.3888 75.6428 30.4194 75.4669 30.4194C75.2901 30.4194 75.1353 30.3888 75.0018 30.326C74.8682 30.2643 74.7594 30.1779 74.6747 30.0674C74.5906 29.9569 74.5311 29.8263 74.4963 29.6757C74.4626 29.5255 74.456 29.3608 74.4777 29.1835L74.7035 27.334H75.1399L74.9116 29.1835C74.8965 29.3081 74.898 29.4231 74.9176 29.5275C74.9368 29.633 74.9716 29.7224 75.023 29.7982C75.0739 29.873 75.1409 29.9318 75.2235 29.974C75.3062 30.0162 75.4024 30.0378 75.5133 30.0378L75.5138 30.0373Z" fill="#EE8A3E"/>
<path id="Vector_32" d="M77.7322 28.7422C77.8466 28.5614 77.9756 28.4248 78.1177 28.3324C78.2598 28.2405 78.4059 28.1943 78.5561 28.1943C78.6473 28.1943 78.728 28.2119 78.799 28.2491C78.8691 28.2852 78.926 28.3375 78.9694 28.4068C79.0142 28.4761 79.0439 28.5614 79.0611 28.6629C79.0767 28.7643 79.0767 28.8798 79.0591 29.0104L78.8968 30.3834H78.4815L78.6453 29.0104C78.6655 28.8472 78.6554 28.7287 78.6166 28.6518C78.5778 28.5765 78.5057 28.5383 78.4004 28.5383C78.3354 28.5383 78.2684 28.5559 78.1993 28.5921C78.1313 28.6292 78.0658 28.6795 78.0028 28.7457C77.9398 28.811 77.8803 28.8909 77.8254 28.9848C77.7705 29.0782 77.7256 29.1816 77.6878 29.2971L77.5669 30.3839H77.1516L77.4091 28.2225H77.6178C77.6636 28.2225 77.6984 28.234 77.7216 28.2561C77.7463 28.2787 77.7589 28.3144 77.7589 28.3631L77.7312 28.7427L77.7322 28.7422Z" fill="#EE8A3E"/>
<path id="Vector_33" d="M80.2529 27.5597C80.2529 27.5974 80.2444 27.6335 80.2282 27.6682C80.2121 27.7033 80.1904 27.734 80.1642 27.7596C80.138 27.7862 80.1078 27.8073 80.0735 27.8214C80.0397 27.8364 80.005 27.8434 79.9697 27.8434C79.9339 27.8434 79.9002 27.8364 79.8674 27.8214C79.8346 27.8073 79.8059 27.7862 79.7802 27.7596C79.756 27.7345 79.7359 27.7033 79.7212 27.6682C79.7061 27.6335 79.6986 27.5974 79.6986 27.5597C79.6986 27.5205 79.7061 27.4844 79.7212 27.4502C79.7359 27.4156 79.756 27.385 79.7817 27.3583C79.8074 27.3322 79.8367 27.3111 79.8704 27.2951C79.9037 27.28 79.9385 27.2725 79.9737 27.2725C80.0095 27.2725 80.0438 27.279 80.0775 27.2946C80.1118 27.3091 80.142 27.3297 80.1677 27.3558C80.1929 27.3824 80.2131 27.4121 80.2292 27.4472C80.2444 27.4819 80.2529 27.5185 80.2529 27.5587V27.5597ZM80.1118 28.2256L79.8498 30.3835H79.4406L79.7001 28.2256H80.1118Z" fill="#EE8A3E"/>
<path id="Vector_34" d="M81.8898 28.5082C81.8338 28.4997 81.7789 28.4962 81.725 28.4962C81.5985 28.4962 81.4806 28.5253 81.3707 28.584C81.2603 28.6433 81.1646 28.7216 81.0834 28.8206C81.0013 28.92 80.9368 29.035 80.8894 29.1661C80.8415 29.2966 80.8179 29.4337 80.8179 29.5774C80.8179 29.7426 80.8451 29.8666 80.899 29.948C80.9524 30.0293 81.031 30.0705 81.1333 30.0705C81.1983 30.0705 81.2634 30.0489 81.3268 30.0062C81.3909 29.964 81.4513 29.9063 81.5088 29.8315C81.5662 29.7571 81.6196 29.6693 81.6685 29.5668C81.7179 29.4644 81.7608 29.3544 81.7975 29.2359L81.8898 28.5092V28.5082ZM81.7124 29.8973C81.6146 30.0554 81.5032 30.1815 81.3788 30.2744C81.2543 30.3668 81.1187 30.413 80.9731 30.413C80.8874 30.413 80.8098 30.3964 80.7398 30.3633C80.6697 30.3301 80.6087 30.2804 80.5588 30.2166C80.5079 30.1519 80.4691 30.073 80.4414 29.9776C80.4132 29.8827 80.4001 29.7742 80.4001 29.6507C80.4001 29.5231 80.4167 29.3991 80.449 29.2761C80.4817 29.1535 80.5276 29.0385 80.586 28.9315C80.645 28.8236 80.7166 28.7241 80.8007 28.6338C80.8844 28.5429 80.9771 28.4655 81.0794 28.4007C81.1817 28.3354 81.2921 28.2852 81.411 28.2491C81.5299 28.2119 81.6534 28.1943 81.7824 28.1943C81.8767 28.1943 81.9679 28.2019 82.0581 28.2169C82.1488 28.2315 82.2365 28.2576 82.3237 28.2948L81.9739 31.1085H81.7104C81.6816 31.1085 81.6585 31.1025 81.6408 31.0935C81.6237 31.0834 81.6096 31.0704 81.6 31.0538C81.5899 31.0377 81.5829 31.0201 81.5803 31.0001C81.5778 30.9805 81.5778 30.9594 81.5803 30.9383L81.7124 29.8978V29.8973Z" fill="#EE8A3E"/>
<path id="Vector_35" d="M84.5945 28.2256L84.3319 30.3835H84.1253C84.025 30.3835 83.9741 30.3338 83.9741 30.2348L83.9993 29.8823C83.8879 30.0581 83.7609 30.1906 83.6213 30.2795C83.4812 30.3689 83.3376 30.4136 83.19 30.4136C83.0988 30.4136 83.0181 30.396 82.9481 30.3599C82.878 30.3237 82.8201 30.2705 82.7762 30.2012C82.7319 30.1319 82.7021 30.047 82.686 29.9456C82.6694 29.8451 82.6689 29.7291 82.6845 29.5981L82.8483 28.2261H83.262L83.1003 29.5981C83.0801 29.7598 83.0897 29.8788 83.128 29.9556C83.1663 30.032 83.2383 30.0701 83.3457 30.0701C83.4097 30.0701 83.4747 30.0525 83.5417 30.0179C83.6082 29.9832 83.6728 29.934 83.7352 29.8708C83.7977 29.807 83.8552 29.7301 83.9091 29.6392C83.9615 29.5483 84.0079 29.4479 84.0457 29.3369L84.1787 28.2261H84.5945V28.2256Z" fill="#EE8A3E"/>
<path id="Vector_36" d="M85.9854 28.4916C85.9007 28.4916 85.8221 28.5086 85.751 28.5438C85.68 28.5779 85.6165 28.6261 85.559 28.6874C85.5026 28.7492 85.4547 28.822 85.4139 28.9044C85.3741 28.9872 85.3433 29.0776 85.3201 29.175C85.5298 29.1479 85.6971 29.1183 85.8226 29.0857C85.9481 29.053 86.0448 29.0179 86.1129 28.9787C86.1814 28.94 86.2263 28.8983 86.2484 28.8546C86.2706 28.811 86.2812 28.7637 86.2812 28.715C86.2812 28.6904 86.2761 28.6658 86.2651 28.6392C86.255 28.6126 86.2378 28.5885 86.2147 28.5674C86.191 28.5453 86.1602 28.5272 86.1224 28.5127C86.0851 28.4986 86.0388 28.4916 85.9849 28.4916H85.9854ZM86.6032 29.9841C86.5296 30.0594 86.4581 30.1242 86.3885 30.1779C86.319 30.2311 86.2474 30.2763 86.1743 30.312C86.1008 30.3471 86.0242 30.3728 85.9456 30.3893C85.8654 30.4054 85.7798 30.4134 85.685 30.4134C85.5615 30.4134 85.4497 30.3923 85.3499 30.3507C85.2496 30.309 85.1644 30.2502 85.0944 30.1734C85.0253 30.0971 84.9714 30.0047 84.9341 29.8962C84.8963 29.7882 84.8777 29.6672 84.8777 29.5321C84.8777 29.4206 84.8883 29.3096 84.912 29.1996C84.9356 29.0907 84.9699 28.9862 85.0153 28.8883C85.0601 28.7899 85.1161 28.698 85.1811 28.6131C85.2466 28.5282 85.3207 28.4549 85.4053 28.3931C85.4895 28.3319 85.5817 28.2837 85.6825 28.2495C85.7828 28.2149 85.8921 28.1968 86.0085 28.1968C86.1189 28.1968 86.2147 28.2123 86.2958 28.2435C86.3764 28.2751 86.444 28.3153 86.4974 28.3635C86.5498 28.4122 86.5896 28.4665 86.6158 28.5257C86.641 28.5855 86.6536 28.6437 86.6536 28.6995C86.6536 28.7934 86.6345 28.8787 86.5962 28.9581C86.5579 29.0364 86.4878 29.1077 86.3865 29.17C86.2847 29.2333 86.1451 29.2885 85.9677 29.3352C85.7898 29.3824 85.562 29.4196 85.2834 29.4477C85.2818 29.4608 85.2813 29.4728 85.2813 29.4859V29.5236C85.2813 29.7094 85.3222 29.8495 85.4018 29.9444C85.4824 30.0398 85.6029 30.087 85.7651 30.087C85.8317 30.087 85.8921 30.08 85.9445 30.0664C85.997 30.0529 86.0438 30.0363 86.0841 30.0162C86.1245 29.9966 86.1602 29.975 86.1915 29.9514C86.2227 29.9278 86.2514 29.9067 86.2777 29.8866C86.3039 29.8671 86.3286 29.8505 86.3512 29.8364C86.3734 29.8234 86.3971 29.8168 86.4213 29.8168C86.4364 29.8168 86.4505 29.8204 86.4631 29.8284C86.4747 29.8354 86.4863 29.8455 86.4974 29.8575L86.6017 29.9846L86.6032 29.9841Z" fill="#EE8A3E"/>
<path id="Vector_37" d="M46.7035 7.53438C46.7035 8.15508 46.7035 11.8331 42.2864 11.8331C37.8541 11.8331 37.8541 8.15508 37.8541 7.53438V1.10889H40.1668V7.44599C40.1668 7.77091 40.3502 9.70584 42.2869 9.70584C44.2019 9.70584 44.3919 7.77091 44.3919 7.44599V1.10889H46.7045V7.53438H46.7035Z" fill="#5E7791"/>
<path id="Vector_38" d="M30.4622 5.54675H31.8602C32.0738 5.54675 32.2986 5.53921 32.537 5.52415C32.7753 5.50908 32.9905 5.46338 33.1835 5.38806C33.3755 5.31273 33.5348 5.19371 33.6623 5.032C33.7888 4.8703 33.8523 4.64331 33.8523 4.35054C33.8523 4.07735 33.7963 3.8604 33.685 3.6987C33.5736 3.53749 33.4315 3.41345 33.2596 3.32758C33.0868 3.24171 32.8897 3.18345 32.6665 3.15332C32.4437 3.12319 32.226 3.10812 32.0129 3.10812H30.4627V5.54675H30.4622ZM28.0911 1.10841H32.2563C32.8036 1.10841 33.3226 1.16164 33.8145 1.26761C34.3053 1.37357 34.7362 1.55034 35.1061 1.79741C35.4755 2.04499 35.7693 2.37844 35.9875 2.79727C36.2052 3.21609 36.3146 3.73937 36.3146 4.3656C36.3146 5.1229 36.117 5.7662 35.7219 6.29651C35.3263 6.82682 34.7493 7.16279 33.9888 7.3034L36.7248 11.8326H33.8825L31.6329 7.54545H30.4622V11.8326H28.0911V1.10791V1.10841Z" fill="#5E7791"/>
<path id="Vector_39" d="M52.5685 16.7828C52.378 16.5433 51.5072 15.9723 50.344 16.139C50.1611 16.1646 49.6975 16.3279 49.4425 16.6628C49.1124 17.0967 49.3089 17.6446 49.6526 17.9057C49.8875 18.084 50.1964 18.2201 50.5617 18.3406C50.9271 18.4606 51.3212 18.5802 51.7415 18.7007C52.1623 18.8197 52.5559 18.9905 52.9217 19.2094C53.2871 19.4289 53.59 19.7236 53.8309 20.0928C54.0713 20.4624 54.1917 20.9565 54.1917 21.5752C54.1917 22.1648 54.0813 22.6785 53.8616 23.1179C53.6409 23.5573 52.6274 25.0644 50.089 25.0644C49.3976 25.0644 47.9402 24.8018 46.5125 23.7316L48.1801 21.9046C48.7722 22.4525 49.4289 22.908 50.2241 22.908C51.2884 22.908 51.612 22.4355 51.7042 22.2938C51.8357 22.0915 52.0348 21.5034 51.4789 21.0434C51.2421 20.8475 50.9251 20.7019 50.5542 20.5718C50.1838 20.4418 49.7826 20.3122 49.3523 20.1826C48.9214 20.0526 48.5208 19.8778 48.1498 19.6584C47.7789 19.4389 47.471 19.1491 47.2251 18.7896C46.9797 18.43 46.8567 17.9565 46.8567 17.3664C46.8567 16.7974 46.963 16.2947 47.1949 15.8689C47.7593 14.8333 48.9058 14.2845 49.3966 14.1393C49.888 13.9942 50.3934 13.9219 50.9145 13.9219C51.5157 13.9219 52.0963 14.0072 52.6582 14.1765C53.2191 14.3462 53.725 14.6305 54.1761 15.0302L52.568 16.7823L52.5685 16.7828Z" fill="#5E7791"/>
<path id="Vector_40" d="M34.1476 16.7828C33.9576 16.5433 33.0863 15.9723 31.9237 16.139C31.7407 16.1646 31.2766 16.3279 31.0216 16.6628C30.6915 17.0967 30.8881 17.6446 31.2318 17.9057C31.4666 18.084 31.7755 18.2201 32.1409 18.3406C32.5067 18.4606 32.9003 18.5802 33.3206 18.7007C33.7414 18.8197 34.135 18.9905 34.5009 19.2094C34.8657 19.4289 35.1691 19.7236 35.4095 20.0928C35.6504 20.4624 35.7703 20.9565 35.7703 21.5752C35.7703 22.1648 35.66 22.6785 35.4397 23.1179C35.219 23.5573 34.2061 25.0644 31.6672 25.0644C30.9757 25.0644 29.5183 24.8018 28.0906 23.7316L29.7582 21.9046C30.3503 22.4525 31.007 22.908 31.8022 22.908C32.8666 22.908 33.1901 22.4355 33.2823 22.2938C33.4139 22.0915 33.6129 21.5034 33.0571 21.0434C32.8207 20.8475 32.5037 20.7019 32.1328 20.5718C31.7619 20.4418 31.3608 20.3122 30.9304 20.1826C30.4995 20.0526 30.0989 19.8778 29.7285 19.6584C29.3576 19.4389 29.0502 19.1491 28.8037 18.7896C28.5583 18.43 28.4358 17.9565 28.4358 17.3664C28.4358 16.7974 28.5417 16.2947 28.7735 15.8689C29.3379 14.8333 30.4844 14.2845 30.9752 14.1393C31.4666 13.9942 31.9721 13.9219 32.4936 13.9219C33.0944 13.9219 33.6754 14.0072 34.2368 14.1765C34.7977 14.3462 35.3037 14.6305 35.7547 15.0302L34.1466 16.7823L34.1476 16.7828Z" fill="#5E7791"/>
</g>
</svg>
